/* XPM */
static char * BrushedTile_xpm[] = {
"64 64 19 1",
" 	c None",
".	c #B6B6B6",
"+	c #B2B2B2",
"@	c #B2AEB2",
"#	c #AEAEAE",
"$	c #B6B2B6",
"%	c #B6BAB6",
"&	c #BABABA",
"*	c #BEBEBE",
"=	c #BABABE",
"-	c #C2C2C2",
";	c #AEAAAA",
">	c #AAAAAA",
",	c #AAA6AA",
"'	c #A6A6A6",
")	c #C6C2C6",
"!	c #C6C6C6",
"~	c #CAC6CA",
"{	c #CACACA",
".+++++@@@++@+++@@++@+#+++@@++++++++$$...$$$+$..%&&&&&&&*********",
"++++.$...%%&%&&&&&%%&&&&==*-*&=&&&%%&%.&%&&&...$+++++$$.$.+$++++",
"$+@##;;>>>>;##;;#####;;;>>,>>########++++$$....%%&&&.%&&==&&&&**",
"..$...%&&&&&&%&&&%.............&&%%&%&&&&&&&****=&&=&=**--------",
"##;;;##>;>>>>>',>>###;;###+@@+++$....%%...%&&&&&&&&&&&=====&&&&&",
"+@@#+++++@+++.++$..%.$..............+++@@+++$+++++$.$$+....$++..",
"@######>>;####;;####+@@@@++++@@++..$$++++$$....%&&&&&%%&%.....&&",
"$...&&&==**=&%&&&&%..++++...+++++++$$..$$$$..$..$$+++$......%%&&",
"$............%&&&&&=*-----)))!!!-----*-****---)----)))-------**&",
"#####+++++++$$.....%&%%.%%&%&&==****=*****====&=***&**=&&==&&&&&",
"+$.........%%%&&&%%.%&&&&=**&&&&&&===******=***-----**==&&&&=&&&",
"$.$$$+++++++++++++++$$.+$..&&&&====**-****----!!!!!!!!~~~!{!!!!!",
"###@@@+++$$$...$++++$+++...$$$+++++......%%&.&%.$++###@++++$+$..",
".%%.%.&&&=&&&=***********-*--------*****&*&&*==&&&&&&&&&=&*==*==",
"...$...&&&**&&&%&...........$$$+++@##+++++++++#######+$+$++$$$..",
"#@+++..%%&&&&=&&&.%%&..%.%&%&&=&&&&%%%%&&&&&&*==***&**=**=******",
"+++..$.$...$$...$$..........$$$++@+++++.$+$++++$+++++@@###;;##@#",
"$$$$$$+$$+$++$.$++#@+++@+++++$$$.++++++#@+$$.....&&&&=&=*****=**",
"++$.$$$.++...$$+........%&&&&..%.%%%...+++$$++++$$+++++++++@@+++",
"##;>>>>>>>>>>>>#@@++++$++++++++++++$+$$+++++++++++++@@@@####;###",
"#@+++++++++++@##@#+++++++++++++$.%%....%%.............$..++++..+",
"$+++++++++@++++++#####+++#@++@++###@###@@#+@####>>>#############",
"#;#;;##@###########+++$.........%%&&%&&&&&%%&&&%%&&&&&&&&&&%%%..",
".......%%%&..%&%&.&%&&%..%.&&%%.....%&&&&%&&&%..$..$.%%..$...%..",
">>>>;;#;#;####;######+++$++$+++..$.....$++++++$+$......%&&%&&%%%",
"+$...........%&&&&&=&==*==&&&&%&&&&&&&&&%&&&&%&&&&&%&%%.....%%%%",
"++@@@##;>>>>>>>>;#;>;##############+++++@@@#++..%&&%.%&&&&&&=&&&",
"#@@########@+@+++@+@@++..&&&&&%&&==********----*-------*-***----",
"#####@+++$$++++++++@++$.$.....$$++$..+++@@+++@@@+@+@++$$+$$$....",
"+++++++@++$+@#+++$$+++++++$++$+++...%%%%.&&&&&&=****-----******=",
"##@@+@@+#@+#@++$++$++$++@@##@+++@++++++#@#+###++@++##@#;;;##@###",
"&%%.%......&&&....&&&%.............&&&==**===&&&&&&&&%%&&&..$...",
"#@@#@##@#@@+++++++++++@@@#@@++++++$$..%&&&&****-----***----***--",
"+$$....%%&&&&&&=*====****=*&*&=&=***=&&..%&&&%.......%.+.$$++$..",
"+@#####;>>>>'>>,>>>>;#;##++++@@@@+@@+++...%%.&.%%&&&&==&=&*&=&&=",
"#######>>>>>>>#####+#####@####;##>;;>>##@+++...&==*=*==*=*&==*--",
"==****=&&&&&&&=*--------!!)--*--*-*****---------)----*-**=&&&&&&",
">>>>;>###+@##;>>>>>>>>;#>##++$$$+.$++++++$$$...$..++$$$$$++++.++",
"++++++++@@@####@++$..$.$......&&%&%&%&..&%%%%&&&%&&&&&&%...$$...",
";>>###@+@+++++++@@####@+++.+$$.%.&&%&&&&=&&&&=**=****=&*****----",
".%%&&&&...%..%..&&&&&&&**************-****--------------***-***=",
";>;>###@###############@+++$++$+++..$.....$++++++.+.......%&&&&&",
"###;#########@@#@+++++##@@@#@+@+####@++++$....$$...++$$$....%&&&",
"+@+++.$+++$$$$++++++++$....++.......%%&&&%..$$..........%%....$$",
"+@+++$$++++@+$++++$.+$$....++.$....$++++++++@###@@+..$++++@@@+++",
"###;;;;##;>>>>>#@+###;;;;>###;;######+@@##+####@##++$$$.++++$..%",
"$...........%%&..%%.&&&&%%.&&&&&..%......%%%&&&=********==&&=&&&",
">;;;###@###########+++$.........%%&&%&&&&&%%&&&%%&&&&&&&&&&%%%..",
"...............%.%&&&&&%......&&&&&&&=&&&&=&=*&***===****-**----",
"$...%&&&&&&&==**&&&=&&&&===&&....%&%.........$+$+++++$$..%%%%&&=",
"+++++++++.....$.$$+$$++@+@@+$$$...%%%.%%&%&&&***&&&&=&=&&*&&=**&",
"#@++++++#+++++++..%&&&&&&=*=**----------*****=***-------********",
"...........$$$+++++########+++++++###+++++++++@++..........%&&&&",
".....$$+++$++++@@+++++$$$......&.%&&&&&&&&&&****---*-----*******",
".$+++++....$$.$$+$$++@@@@+$+$...%...%%&%&&&***&&&&=&=&&*&&==*&**",
".....%&&&&&&&***********-*--------*****&*&&*==&&&&&&&&&=&*=&===*",
"#;>;>;>>,>>,'>>,>>>>;#;##++++@@@@+@@+++...%%.&.%%&&&&==&=&*&=&&=",
"###>#;#######@###++++++++++++..&&&&&&&=*********---------------*",
"........%...%.$++++..$$$++.+++$.......$$++$.........+++..%&&==*&",
".........$....+++++++++++$+++...%....&...$$..........%%&&&&&&&&&",
"..%......+.$+++.........$++++++++++++@++++++$.$.....%&%...%%%&&&",
"######;;##@@++++$...%..%%&&&.&&&&&&&==&&&&==****-**===****------",
"####;;>>>>>>;##;;#####;;;>>,>>########++++$....%%&&&&%%&&==&&&&*",
"$+++++++$.$...%&%......%..&&%&&&&&&&=&&&&%&&&&&&&&&&&&=&&&***-**"};
