/* XPM */
static char *image[] = {
"22 22 299 2",
"   c None",
"00 c #e75e05",
"10 c #f26202",
"20 c #f26303",
"30 c #f26604",
"40 c #ef6305",
"50 c #f16405",
"60 c #ef6103",
"70 c #e56109",
"80 c #9e6743",
"90 c #828282",
":0 c #ca7136",
";0 c #f19934",
"A0 c #febb4d",
"B0 c #fab043",
"C0 c #f27715",
"D0 c #e35e03",
"E0 c #f46505",
"F0 c #f66f0e",
"G0 c #fcac3b",
"H0 c #feb948",
"I0 c #d2a65f",
"J0 c #8d8984",
"K0 c #a3a2a2",
"L0 c #f2711c",
"M0 c #ffbe52",
"N0 c #fcc554",
"O0 c #fac352",
"P0 c #f8be50",
"Q0 c #febf54",
"R0 c #f38622",
"S0 c #f76405",
"T0 c #f98c21",
"U0 c #fdbd48",
"V0 c #ae9a75",
"W0 c #949492",
"X0 c #cccccc",
"Y0 c #f07d31",
"Z0 c #fdbc52",
"a0 c #fdc557",
"b0 c #fdc856",
"c0 c #fdc656",
"d0 c #f8bd50",
"e0 c #fec058",
"f0 c #f46606",
"g0 c #f88017",
"h0 c #ffba48",
"i0 c #ffc048",
"j0 c #a99a7b",
"k0 c #a4a4a4",
"l0 c #c1c1c1",
"m0 c #bcbcbc",
"n0 c #c2c2c2",
"o0 c #cacaca",
"p0 c #dfaf91",
"q0 c #f58b33",
"r0 c #ffc25c",
"s0 c #fcba52",
"t0 c #fdb650",
"u0 c #fdb34f",
"v0 c #fbbb57",
"w0 c #f99835",
"x0 c #f56404",
"y0 c #feb444",
"z0 c #feb342",
"01 c #be9d6c",
"11 c #a6a6a5",
"21 c #bbbbbb",
"31 c #b6b6b6",
"41 c #cfcece",
"51 c #eb8c4f",
"61 c #f9a145",
"71 c #fec160",
"81 c #fda84b",
"91 c #fea44a",
":1 c #fdad52",
";1 c #fbaf51",
"A1 c #f46b05",
"B1 c #f9831e",
"C1 c #ffb749",
"D1 c #e39848",
"E1 c #999896",
"F1 c #c3c3c3",
"G1 c #bebebe",
"H1 c #b8b8b8",
"I1 c #e7e7e7",
"J1 c #e2dcd7",
"K1 c #f18131",
"L1 c #fcb256",
"M1 c #feb158",
"N1 c #fe9443",
"O1 c #fd9848",
"P1 c #fdc164",
"Q1 c #f47102",
"R1 c #f76403",
"S1 c #fca23c",
"T1 c #fea843",
"U1 c #9b8d81",
"V1 c #cdcdcd",
"W1 c #c6c6c6",
"X1 c #c0c0c0",
"Y1 c #959595",
"Z1 c #c8c8c8",
"a1 c #e6cfbd",
"b1 c #f68728",
"c1 c #ffc86c",
"d1 c #fe8b42",
"e1 c #fe853f",
"f1 c #fec76e",
"g1 c #f67701",
"h1 c #f56d04",
"i1 c #feb550",
"j1 c #e28a47",
"k1 c #9d9b9a",
"l1 c #c9c9c9",
"m1 c #a18776",
"n1 c #f26c0c",
"o1 c #e7711c",
"p1 c #9a9795",
"q1 c #f7f7f7",
"r1 c #f59d4d",
"s1 c #fdb35e",
"t1 c #fe904a",
"u1 c #fe753a",
"v1 c #fec872",
"w1 c #f67e01",
"x1 c #f67301",
"y1 c #ffbc5c",
"z1 c #b58369",
"02 c #bfbfbf",
"12 c #d1d1d1",
"22 c #cbcbcb",
"32 c #dbdbdb",
"42 c #a99688",
"52 c #f37811",
"62 c #feb644",
"72 c #f99323",
"82 c #b67d4e",
"92 c #f1f1f1",
":2 c #f1bc85",
";2 c #fca54f",
"A2 c #fe9c57",
"B2 c #fd743e",
"C2 c #fcb968",
"D2 c #f58201",
"E2 c #f57c00",
"F2 c #ffc667",
"G2 c #988983",
"H2 c #d7d7d7",
"I2 c #dadada",
"J2 c #cecece",
"K2 c #dfdede",
"L2 c #d77928",
"M2 c #feb747",
"N2 c #ffbd4a",
"O2 c #feba4a",
"P2 c #e77f20",
"Q2 c #ebc291",
"R2 c #faa24d",
"S2 c #fea25e",
"T2 c #fd9052",
"U2 c #faa754",
"V2 c #f68a02",
"W2 c #f68201",
"X2 c #ffc168",
"Y2 c #898684",
"Z2 c #e6e6e6",
"a2 c #dcdcdc",
"b2 c #d6d6d6",
"c2 c #d0d0d0",
"d2 c #e3c3a5",
"e2 c #ef9d37",
"f2 c #fdbc53",
"g2 c #fcb644",
"h2 c #febf55",
"i2 c #f0881f",
"j2 c #ded9d4",
"k2 c #e5c18e",
"l2 c #faa64d",
"m2 c #fea462",
"n2 c #fec177",
"o2 c #f69c2d",
"p2 c #f68901",
"q2 c #feb764",
"r2 c #878483",
"s2 c #e9e9e9",
"t2 c #dedede",
"u2 c #d9d9d9",
"v2 c #d3d3d3",
"w2 c #f1a75c",
"x2 c #fdb856",
"y2 c #f8a84b",
"z2 c #f5a043",
"03 c #febf5c",
"13 c #f28f20",
"23 c #d0cfcf",
"33 c #e4b26b",
"43 c #fbac5a",
"53 c #feb974",
"63 c #fdc378",
"73 c #f69501",
"83 c #f69102",
"93 c #fda852",
":3 c #938c87",
";3 c #e0e0e0",
"A3 c #e3e3e3",
"B3 c #dddddd",
"C3 c #ececec",
"D3 c #f59d3b",
"E3 c #ffc569",
"F3 c #fc8e41",
"G3 c #fc9d4d",
"H3 c #fdb65b",
"I3 c #ea9630",
"J3 c #c4c4c4",
"K3 c #e9a438",
"L3 c #fdbf75",
"M3 c #ffda91",
"N3 c #f7a635",
"O3 c #f9a22c",
"P3 c #b29c84",
"Q3 c #c5c5c5",
"R3 c #f49a2d",
"S3 c #ffcb74",
"T3 c #fa7135",
"U3 c #fdaa5c",
"V3 c #f9a247",
"W3 c #d8a561",
"X3 c #c0bbb2",
"Y3 c #f3a720",
"Z3 c #fcc277",
"a3 c #f69d01",
"b3 c #f69e05",
"c3 c #e0b77f",
"d3 c #908e8d",
"e3 c #f4f4f4",
"f3 c #f5f5f5",
"g3 c #ededed",
"h3 c #f2a545",
"i3 c #fec273",
"j3 c #fc6c39",
"k3 c #ffc879",
"l3 c #ef982f",
"m3 c #cab89a",
"n3 c #dfc186",
"o3 c #f5af53",
"p3 c #ffdf9b",
"q3 c #f7a40d",
"r3 c #fca848",
"s3 c #a79584",
"t3 c #a8a8a8",
"u3 c #f2f2f2",
"v3 c #efefef",
"w3 c #edbb72",
"x3 c #fcad5e",
"y3 c #feae6c",
"z3 c #fec37a",
"04 c #efa42e",
"14 c #d5d4d3",
"24 c #e09e2a",
"34 c #fcba73",
"44 c #f8a423",
"54 c #f59e06",
"64 c #f9c684",
"74 c #a0998b",
"84 c #949493",
"94 c #cfcfcf",
":4 c #e6d8c0",
";4 c #f6a93c",
"A4 c #ffdc96",
"B4 c #fcb76a",
"C4 c #d1a65b",
"D4 c #978d76",
"E4 c #f1a419",
"F4 c #f9a432",
"G4 c #f7a102",
"H4 c #f9a522",
"I4 c #fee0a1",
"J4 c #cc9f60",
"K4 c #918b81",
"L4 c #858585",
"M4 c #c58f36",
"N4 c #f8bb72",
"O4 c #f0a242",
"P4 c #b79144",
"Q4 c #f39c04",
"R4 c #f5a302",
"S4 c #f69e02",
"T4 c #f49d02",
"U4 c #fba93b",
"V4 c #fdb15b",
"W4 c #f59d09",
"X4 c #f69f0d",
"Y4 c #f6a100",
"Z4 c #f69c02",
"a4 c #f6aa15",
"b4 c #f59f01",
"c4 c #f5a100",
"d4 c #f5a200",
"                            d4              ",
"                d4  c4      b4a4Z4          ",
"              Y4d4  X4W4      V4U4T4        ",
"            S4R4Q4P4O4N4M4L4K4J4I4H4        ",
"          G4F4E4D4C4B4A4;4:49484746454      ",
"          4434241404z3y3x3w3v3u3t3s3r3      ",
"        q3p3o3n3m3l3k3j3i3h3g3f3e3d3c3b3    ",
"      a3Z3A4Y3X3W3V3U3T3S3R3u3e3g3Q3P3O3    ",
"      N3M3L3K3J3I3H3G3F3E3D3C3B3A3;3:39383  ",
"    7363534333231303z2y2x2w2v2u2t2s2r2q2p2  ",
"    o2n2m2l2k2j2i2h2g2f2e2d2c2b2a2Z2Y2X2W2  ",
"  V2U2T2S2R2Q2s2P2O2N2M2L2K2J2v2I2H2G2F2E2  ",
"  D2C2B2A2;2:2928272625242322212I202z1y1x1  ",
"  w1v1u1t1s1r1q1p1o1n1m1J222l1J2I2k1j1i1h1  ",
"  g1f1e1d1c1b1a1Z1L4Y1l1c2X1W1V1l1U1T1S1R1  ",
"  Q1P1O1N1M1L1K1J1I1;322H1G1F1c2E1D1C1B1    ",
"  A1;1:1918171615141W1G13121Z11101z0y0x0    ",
"    w0v0u0t0s0r0q0p0o0n0m0l0k0j0i0h0g0      ",
"    f0e0d0c0b0a0Z0Y0c2X002W0V0U0h0T0S0      ",
"      R0Q0P0O0N0M0L0n0K0J0I0H0G0F0E0        ",
"      D0C0B0A0A0;0:0908070605040            ",
"          30201000                          "};
