/* XPM */
static char *image[] = {
"16 16 166 2",
"   c None",
"00 c #6c2606",
"10 c #7c1b05",
"20 c #7e1205",
"30 c #6d0d04",
"40 c #a46607",
"50 c #cf7405",
"60 c #d15105",
"70 c #c93009",
"80 c #c31b0b",
"90 c #bf1009",
":0 c #af0a03",
";0 c #840000",
"A0 c #d1a602",
"B0 c #f8c700",
"C0 c #df8105",
"D0 c #dc6f12",
"E0 c #dc6816",
"F0 c #d55b16",
"G0 c #cd4913",
"H0 c #c52d0c",
"I0 c #c82611",
"J0 c #a71301",
"K0 c #c9ab07",
"L0 c #ffec22",
"M0 c #e68803",
"N0 c #e67718",
"O0 c #d27628",
"P0 c #c67231",
"Q0 c #db7b1f",
"R0 c #e57c11",
"S0 c #dc6f0e",
"T0 c #dd721b",
"U0 c #da5716",
"V0 c #a31d03",
"W0 c #8f7914",
"X0 c #fffa3b",
"Y0 c #f5c026",
"Z0 c #e5860b",
"a0 c #834928",
"b0 c #181038",
"c0 c #0f1859",
"d0 c #35283b",
"e0 c #a65c21",
"f0 c #e27614",
"g0 c #df740f",
"h0 c #e27e17",
"i0 c #dc5f10",
"j0 c #891203",
"k0 c #cebc53",
"l0 c #ffd53d",
"m0 c #efc919",
"n0 c #6a4f3c",
"o0 c #020335",
"p0 c #100c27",
"q0 c #5b2e18",
"r0 c #af4a0d",
"s0 c #b94809",
"t0 c #da600a",
"u0 c #e15e06",
"v0 c #df7115",
"w0 c #e67f19",
"x0 c #b73b08",
"y0 c #e9c63e",
"z0 c #ffc402",
"01 c #ddb64d",
"11 c #0e184b",
"21 c #000637",
"31 c #454f67",
"41 c #c19361",
"51 c #9d7860",
"61 c #83716f",
"71 c #c56a2a",
"81 c #c63700",
"91 c #cc540c",
":1 c #e47e19",
";1 c #cb540e",
"A1 c #f3c21f",
"B1 c #ffd30a",
"C1 c #a17b3d",
"D1 c #051848",
"E1 c #011c4c",
"F1 c #204986",
"G1 c #3e71b6",
"H1 c #386eb6",
"I1 c #2e5e9d",
"J1 c #533c47",
"K1 c #a62202",
"L1 c #cc5c11",
"M1 c #e37b18",
"N1 c #d56413",
"O1 c #f5c527",
"P1 c #fede37",
"Q1 c #525f69",
"R1 c #1b4483",
"S1 c #032e60",
"T1 c #11447a",
"U1 c #427db8",
"V1 c #3b7abb",
"W1 c #697272",
"X1 c #d48433",
"Y1 c #d86f1b",
"Z1 c #e07517",
"a1 c #e07715",
"b1 c #dd7017",
"c1 c #eecf13",
"d1 c #f5bc31",
"e1 c #5c768e",
"f1 c #3b76b8",
"g1 c #104a7f",
"h1 c #1d5f95",
"i1 c #3b82ba",
"j1 c #586d7d",
"k1 c #bb7646",
"l1 c #e37a21",
"m1 c #e17617",
"n1 c #df7417",
"o1 c #e17614",
"p1 c #db731c",
"q1 c #e7c03b",
"r1 c #f6b309",
"s1 c #596d76",
"t1 c #3b7abf",
"u1 c #4b91c6",
"v1 c #57a1d4",
"w1 c #57a6da",
"x1 c #848e92",
"y1 c #ab664d",
"z1 c #c4580d",
"02 c #e47511",
"12 c #e37512",
"22 c #e57612",
"32 c #c75910",
"42 c #f8cc12",
"52 c #d2be25",
"62 c #3f484b",
"72 c #578eb8",
"82 c #74bde5",
"92 c #61aed8",
":2 c #69b9e6",
";2 c #5f9aba",
"A2 c #c57726",
"B2 c #d48b43",
"C2 c #c98a4d",
"D2 c #eb7e2b",
"E2 c #f4c225",
"F2 c #dfb327",
"G2 c #848e7c",
"H2 c #69b1d4",
"I2 c #83c7e6",
"J2 c #8dceed",
"K2 c #88aeb1",
"L2 c #a3b4a2",
"M2 c #499fcd",
"N2 c #0d5197",
"O2 c #cb7735",
"P2 c #595247",
"Q2 c #5c7986",
"R2 c #75b4d2",
"S2 c #99d7f0",
"T2 c #a5dff5",
"U2 c #79bfe3",
"V2 c #52a1d3",
"W2 c #196db3",
"X2 c #2b4a9b",
"Y2 c #3450a1",
"              Y2X2              ",
"        W2V2U2T2S2R2Q2P2        ",
"    O2N2M2L2K2J2I2H2G2F2E2      ",
"    D2C2B2A2;2:2928272625242    ",
"  32221202z1y1x1w1v1u1t1s1r1q1  ",
"  p1o1n1m1l1k1j1i1h1g1f1e1d1c1  ",
"  b1a1Z1Y1X1W1V1U1T1S1R1Q1P1O1  ",
"  N1M1L1K1J1I1H1G1F1E1D1C1B1A1  ",
"  ;1:191817161514131211101z0y0  ",
"  x0w0v0u0t0s0r0q0p0o0n0m0l0k0  ",
"  j0i0h0g0f0e0d0c0b0a0Z0Y0X0W0  ",
"    V0U0T0S0R0Q0P0O0N0M0L0K0    ",
"      J0I0H0G0F0E0D0C0B0A0      ",
"        ;0:0908070605040        ",
"            30201000            ",
"                                "};
