/* XPM */
static char *image[] = {
"22 22 294 2",
"   c None",
"00 c #688eb2",
"10 c #686b71",
"20 c #626265",
"30 c #5b7d9e",
"40 c #507599",
"50 c #546b78",
"60 c #72663d",
"70 c #ac7e16",
"80 c #bc8307",
"90 c #8d6308",
":0 c #6385a7",
";0 c #678db2",
"A0 c #6a93ba",
"B0 c #6a94bc",
"C0 c #698fb3",
"D0 c #616165",
"E0 c #505357",
"F0 c #716136",
"G0 c #db9d12",
"H0 c #feae03",
"I0 c #ffae00",
"J0 c #e49e06",
"K0 c #886e2d",
"L0 c #6d96be",
"M0 c #6d97be",
"N0 c #6d97bf",
"O0 c #6b90b4",
"P0 c #696c71",
"Q0 c #6a6a6d",
"R0 c #68686b",
"S0 c #5a5a5d",
"T0 c #6e592d",
"U0 c #ee9d14",
"V0 c #ef7429",
"W0 c #f3872a",
"X0 c #fcae0c",
"Y0 c #fdac04",
"Z0 c #f89d1a",
"a0 c #ee9818",
"b0 c #7b7048",
"c0 c #4f667d",
"d0 c #719ac0",
"e0 c #7199bf",
"f0 c #7198be",
"g0 c #7499bd",
"h0 c #7399be",
"i0 c #759cc0",
"j0 c #6e93b6",
"k0 c #787a7f",
"l0 c #808083",
"m0 c #717173",
"n0 c #514f4d",
"o0 c #d99607",
"p0 c #fcad0f",
"q0 c #ec642d",
"r0 c #f49131",
"s0 c #fdac08",
"t0 c #faa61c",
"u0 c #ef752e",
"v0 c #f9a317",
"w0 c #de9b0c",
"x0 c #596363",
"y0 c #769dc2",
"z0 c #789cbe",
"01 c #879eb4",
"11 c #9badbf",
"21 c #89a2bb",
"31 c #799dc0",
"41 c #7396b8",
"51 c #6f7176",
"61 c #7e7e80",
"71 c #848484",
"81 c #7a6944",
"91 c #fead00",
":1 c #feac01",
";1 c #fbab1d",
"A1 c #e84d2b",
"B1 c #e32a20",
"C1 c #f69e3c",
"D1 c #ee7431",
"E1 c #f79e21",
"F1 c #fba508",
"G1 c #896c25",
"H1 c #7ba0c3",
"I1 c #cad4de",
"J1 c #e7eaed",
"K1 c #90acc6",
"L1 c #7ba0c4",
"M1 c #7799b9",
"N1 c #717476",
"O1 c #757575",
"P1 c #6c6c6c",
"Q1 c #977326",
"R1 c #feac00",
"S1 c #fdaa02",
"T1 c #fda905",
"U1 c #f7a22f",
"V1 c #e33125",
"W1 c #e64436",
"X1 c #f49637",
"Y1 c #faa50b",
"Z1 c #faa207",
"a1 c #cb8d06",
"b1 c #7da2c6",
"c1 c #7ea2c5",
"d1 c #90aac4",
"e1 c #83a2c0",
"f1 c #7b9fc2",
"g1 c #789ab6",
"h1 c #748e97",
"i1 c #7a8179",
"j1 c #7a7c79",
"k1 c #6f6f6f",
"l1 c #8f6f2b",
"m1 c #fca803",
"n1 c #fca809",
"o1 c #f4922b",
"p1 c #ee7b43",
"q1 c #e22820",
"r1 c #ea5930",
"s1 c #f7a31e",
"t1 c #f9a10a",
"u1 c #fba505",
"v1 c #be860b",
"w1 c #7ea3c6",
"x1 c #7b9fc1",
"y1 c #7798b0",
"z1 c #739196",
"02 c #728c77",
"12 c #748f68",
"22 c #708b5c",
"32 c #6b8657",
"42 c #799162",
"52 c #87946c",
"62 c #6d6947",
"72 c #feab01",
"82 c #fba608",
"92 c #f59923",
":2 c #ef772f",
";2 c #f8a521",
"A2 c #ef7c37",
"B2 c #e11e1b",
"C2 c #ec6d33",
"D2 c #f7a119",
"E2 c #fca605",
"F2 c #7e6e3e",
"G2 c #728395",
"H2 c #6e767f",
"I2 c #7b8770",
"J2 c #7c945a",
"K2 c #65854e",
"L2 c #62804e",
"M2 c #6f8e58",
"N2 c #779760",
"O2 c #809f65",
"P2 c #899d5a",
"Q2 c #5a6d48",
"R2 c #be870d",
"S2 c #f89d16",
"T2 c #ee752e",
"U2 c #f79f1d",
"V2 c #f9a00a",
"W2 c #f7a11b",
"X2 c #eb6132",
"Y2 c #e1211b",
"Z2 c #f18029",
"a2 c #cb941e",
"b2 c #63727b",
"c2 c #8ca059",
"d2 c #6d8d57",
"e2 c #74945d",
"f2 c #7b9b64",
"g2 c #82a26b",
"h2 c #86a56e",
"i2 c #889470",
"j2 c #6b8399",
"k2 c #6b7a7f",
"l2 c #df9e17",
"m2 c #f9a312",
"n2 c #f9a00b",
"o2 c #f89e0a",
"p2 c #f89d0c",
"q2 c #f79f19",
"r2 c #f7a227",
"s2 c #e3a01e",
"t2 c #71766e",
"u2 c #667c92",
"v2 c #99af5f",
"w2 c #789861",
"x2 c #82a168",
"y2 c #83a169",
"z2 c #7f9863",
"03 c #82996a",
"13 c #7d9fa5",
"23 c #6a94bb",
"33 c #6892ba",
"43 c #6b828d",
"53 c #be9126",
"63 c #f1a30a",
"73 c #f9a406",
"83 c #f1a10a",
"93 c #c69321",
":3 c #727871",
";3 c #687f94",
"A3 c #698095",
"B3 c #b3c36d",
"C3 c #aebf66",
"D3 c #93a98d",
"E3 c #7d9da4",
"F3 c #779db6",
"G3 c #6d96bd",
"H3 c #6b95bd",
"I3 c #6b95be",
"J3 c #65819d",
"K3 c #788383",
"L3 c #8d8156",
"M3 c #8f8256",
"N3 c #6f7772",
"O3 c #677d91",
"P3 c #6b8297",
"Q3 c #6e97bf",
"R3 c #6f97be",
"S3 c #6e97be",
"T3 c #6f98bf",
"U3 c #7099c0",
"V3 c #6f8ca8",
"W3 c #7d96ae",
"X3 c #6d8398",
"Y3 c #82a5c7",
"Z3 c #739bc0",
"a3 c #799aba",
"b3 c #809bb5",
"c3 c #8aa0b5",
"d3 c #7d9bb7",
"e3 c #749cc3",
"f3 c #7390ab",
"g3 c #8199b1",
"h3 c #70849a",
"i3 c #86a8c9",
"j3 c #789ec3",
"k3 c #93aec7",
"l3 c #e9edf0",
"m3 c #bfc9d2",
"n3 c #769cc1",
"o3 c #799fc4",
"p3 c #7893ae",
"q3 c #839cb3",
"r3 c #7ca2c5",
"s3 c #8eaac5",
"t3 c #a1b5c8",
"u3 c #84a2bf",
"v3 c #7ca1c5",
"w3 c #7d97b1",
"x3 c #859db5",
"y3 c #71869a",
"z3 c #88aaca",
"04 c #7da2c5",
"14 c #7ca1c3",
"24 c #7fa1c1",
"34 c #83a2bf",
"44 c #8ca8c2",
"54 c #8eabc5",
"64 c #7c95ad",
"74 c #6f8499",
"84 c #8daecc",
"94 c #83a5c5",
":4 c #86a4c1",
";4 c #89a5c0",
"A4 c #87a2bc",
"B4 c #7a94ae",
"C4 c #6d87a0",
"D4 c #5f7890",
"E4 c #5b748c",
"F4 c #5e768e",
"G4 c #637b92",
"H4 c #687f95",
"I4 c #6e8398",
"J4 c #71869b",
"K4 c #87a2bb",
"L4 c #738ca3",
"M4 c #6a829a",
"N4 c #647b93",
"O4 c #627990",
"P4 c #637a91",
"Q4 c #647b92",
"R4 c #667d94",
"S4 c #697f96",
"T4 c #6a8097",
"U4 c #6c8198",
"V4 c #6d8298",
"W4 c #6c8298",
"X4 c #6b8197",
"Y4 c #70859a",
"              Y4Y4                          ",
"      X4W4V4V4V4V4V4W4U4T4                  ",
"  S4R4Q4P4P4P4P4P4P4O4N4M4L4K4              ",
"J4Y4Y4I4H4G4F4E4D4C4B4A4;4:49484            ",
"J4J4J4J4J4Y4746454443424140404z3            ",
"J4J4J4J4J4J4y3x3w3v3v3u3t3s3r3z3            ",
"J4J4J4J4J4J4y3q3p3o3n3m3l3k3j3i3            ",
"h3h3h3h3h3h3h3g3f3e3d3c3b3a3Z3Y3            ",
"X3X3X3X3X3X3X3W3V3U3T3S3R3T3Q304            ",
"P3P3P3O3N3M3L3K3J3I3H3H3G3F3E3D3  C3B3      ",
"A3;3:39383737363534333231303z2y2x2w2v2      ",
"u2t2s2r2q2p2o2n2m2l2k2j2i2h2g2f2e2d2c2      ",
"b2a2Z2Y2X2W2V2U2T2S2R2Q2P2O2N2M2L2K2J2I2H2G2",
"F2E2D2C2B2A2;2:292827262524232221202z1y1x1w1",
"v1u1t1s1r1q1p1o1n1m172l1k1j1i1h1g1f1e1d1c1b1",
"a1E2Z1Y1X1W1V1U1T1S1R1Q1P1O1N1M1L1K1J1I1H1L1",
"G1m1F1E1D1C1B1A1;1:191817161514131211101z0y0",
"x0w0v0u0t0s0r0Y2q0p0o0n0m0l0k0j0i0h0g0f0e0d0",
"c0b0a0Z0Y091X0W0V0U0T0S0R0Q0P0O0N0M0M0N0N0L0",
"    K0J09191I0H0G0F0E0D0R0Q0P0C0H3H3B0A0;0:0",
"        90807060504030  20R0100023A0        ",
"                                            "};
