/* XPM */
static char *image[] = {
"22 22 147 2",
"   c None",
"00 c #5c6060",
"10 c #515555",
"20 c #868883",
"30 c #7d8181",
"40 c #9b9d98",
"50 c #a0a29e",
"60 c #828586",
"70 c #878984",
"80 c #584260",
"90 c #7f8281",
":0 c #8a8d87",
";0 c #8d8f8a",
"A0 c #7e8181",
"B0 c #907a98",
"C0 c #7c807f",
"D0 c #868984",
"E0 c #898b86",
"F0 c #7c7f7f",
"G0 c #204a85",
"H0 c #72567d",
"I0 c #71557c",
"J0 c #797d7c",
"K0 c #838680",
"L0 c #848782",
"M0 c #7b7d7d",
"N0 c #6589b7",
"O0 c #6085b5",
"P0 c #74577e",
"Q0 c #757878",
"R0 c #787975",
"S0 c #787a75",
"T0 c #777b7b",
"U0 c #d6d6d6",
"V0 c #6e7272",
"W0 c #646762",
"X0 c #737776",
"Y0 c #ebebeb",
"Z0 c #75507b",
"a0 c #dbdbdb",
"b0 c #737777",
"c0 c #545753",
"d0 c #535652",
"e0 c #7f8282",
"f0 c #e1e1e1",
"g0 c #efefef",
"h0 c #b2b3b1",
"i0 c #b8b9b9",
"j0 c #464a4a",
"k0 c #424646",
"l0 c #c8c9c9",
"m0 c #e9e9e9",
"n0 c #f1f1f1",
"o0 c #e7e7e7",
"p0 c #a8a8a6",
"q0 c #c2c3c3",
"r0 c #a4a4a4",
"s0 c #a5a5a5",
"t0 c #c0c0c0",
"u0 c #e4e4e3",
"v0 c #5d83b3",
"w0 c #5079ad",
"x0 c #73527b",
"y0 c #eeeeee",
"z0 c #c2c3c0",
"01 c #b6b6b5",
"11 c #f4f4f4",
"21 c #f7f7f7",
"31 c #e3e3e3",
"41 c #cbcbcb",
"51 c #b9b9b8",
"61 c #f6f6f6",
"71 c #6188b7",
"81 c #5680b3",
"91 c #5882b5",
":1 c #694571",
";1 c #644a78",
"A1 c #f3f3f3",
"B1 c #a4a6a4",
"C1 c #c6c6c6",
"D1 c #c2c2c2",
"E1 c #a3a3a3",
"F1 c #a6a6a6",
"G1 c #c4c4c4",
"H1 c #e2e2e2",
"I1 c #a6a6a5",
"J1 c #f2f2f2",
"K1 c #6a91c0",
"L1 c #5f8abc",
"M1 c #275390",
"N1 c #5d5e90",
"O1 c #653f6d",
"P1 c #624878",
"Q1 c #5f6293",
"R1 c #6c819e",
"S1 c #dcdcdc",
"T1 c #ababab",
"U1 c #a9a9a9",
"V1 c #e0e0e0",
"W1 c #898b87",
"X1 c #739ac9",
"Y1 c #4874ab",
"Z1 c #477bb7",
"a1 c #4874af",
"b1 c #5b5788",
"c1 c #4a5b93",
"d1 c #4a7fbb",
"e1 c #4c7db8",
"f1 c #3c6299",
"g1 c #9ea0a2",
"h1 c #d9d9d9",
"i1 c #dadada",
"j1 c #d8d8d8",
"k1 c #b6b6b6",
"l1 c #7ba4d1",
"m1 c #4471a9",
"n1 c #407abb",
"o1 c #80a8d3",
"p1 c #9bb9db",
"q1 c #98b7d9",
"r1 c #6a97ca",
"s1 c #4b7db7",
"t1 c #2f5690",
"u1 c #7aa2cf",
"v1 c #888a85",
"w1 c #82a9d2",
"x1 c #3f6ca6",
"y1 c #5287c2",
"z1 c #395e8f",
"02 c #1b3e71",
"12 c #1b3d6f",
"22 c #506c91",
"32 c #5f8cbf",
"42 c #2d538e",
"52 c #749bc8",
"62 c #668ab6",
"72 c #15315b",
"82 c #15315a",
"92 c #1a345b",
":2 c #87a7cd",
";2 c #4573ab",
"A2 c #7091b8",
"B2 c #7a97bb",
"C2 c #809bbd",
"D2 c #839fc2",
"E2 c #6083ae",
"F2 c #204a87",
"                      F2F2F2F2F2F2F2F2      ",
"                      F2E2D2C2B2A2;2F2      ",
"                  F2F2F2:29282728262F2F2    ",
"                  F2524232221202z1y1x1w1F2  ",
"      v1v1v1v1v1v1v1u1t1s1r1q1p1o1n1m1l1F2  ",
"      v1k1j1i1h1h1g1v1f1e1d1c1b1a1Z1Y1X1F2  ",
"  W1v1v1V1U1U1U1T1S1v1v1R1Q1P1O1N1M1L1K1F2  ",
"  v1J1I1H1G1F1E1D1C1B1A1v1;1;1:1;1918171F2  ",
"  v1615141312111S101z0y0v1;1x0x0;1w0w0v0F2  ",
"  v161u001t0s0r0q0p0o0n0v1;1x0x0;1w0w0v0F2  ",
"  v1A1m0p0l0k0j0i0h0V1A1v1;1x0x0;1w0w0v0F2  ",
"  v1g0H1f0e0d0c0b0a0i1n0v1;1Z0Z0;1w0w0v0F2  ",
"  v1Y0S1i1X0W0W0V0U0U0n0v1;1Z0Z0;1w0w0v0F2  ",
"  v1o0U0U0T0S0R0Q0U0U0n0v1;1P0P0;1O0O0N0F2  ",
"  v1o0U0U0M0L0K0J0U0U0n0v1;1I0H0;1F2F2F2G0  ",
"  v1o0U0U0F0E0D0C0U0U0n0v1;1B0B0;1          ",
"  v1o0U0U0A0;0:090U0U0n0v1  ;1;180          ",
"  v1Y0g0A1A0;0:090m0g0A1v1                  ",
"  70v1v1v160504030v1v1v120                  ",
"          v11000v1                          ",
"                                            ",
"                                            "};
