/* XPM */
static char *image[] = {
"22 22 228 2",
"   c None",
"00 c #323739",
"10 c #454a4b",
"20 c #7a7d7c",
"30 c #a9aba8",
"40 c #aeafac",
"50 c #b2b3b2",
"60 c #9d9f9e",
"70 c #484e4f",
"80 c #2d3233",
"90 c #606464",
":0 c #a9aaa8",
";0 c #939692",
"A0 c #797c79",
"B0 c #676a69",
"C0 c #959996",
"D0 c #c3c5c3",
"E0 c #b8b9b7",
"F0 c #626666",
"G0 c #2f3336",
"H0 c #686c6d",
"I0 c #323839",
"J0 c #32383a",
"K0 c #2f3638",
"L0 c #33393a",
"M0 c #323738",
"N0 c #333a3a",
"O0 c #6a6c6d",
"P0 c #1d2121",
"Q0 c #787b7c",
"R0 c #979a9a",
"S0 c #9b9d9d",
"T0 c #a1a3a1",
"U0 c #999b9a",
"V0 c #808383",
"W0 c #6a6f6f",
"X0 c #525758",
"Y0 c #2f3538",
"Z0 c #262c2d",
"a0 c #313637",
"b0 c #65696a",
"c0 c #b9bbba",
"d0 c #acafad",
"e0 c #888a88",
"f0 c #7c7f7c",
"g0 c #717471",
"h0 c #6e7170",
"i0 c #707473",
"j0 c #7d8180",
"k0 c #7c7f7f",
"l0 c #494f50",
"m0 c #282e30",
"n0 c #9ea1a1",
"o0 c #b6b7b6",
"p0 c #848784",
"q0 c #767975",
"r0 c #848682",
"s0 c #8f928f",
"t0 c #979996",
"u0 c #8b8e8b",
"v0 c #777b78",
"w0 c #5e6261",
"x0 c #5d6160",
"y0 c #7a7d7e",
"z0 c #616667",
"01 c #828485",
"11 c #a5a7a7",
"21 c #6b6e6c",
"31 c #727572",
"41 c #838581",
"51 c #6c706e",
"61 c #4a4e4f",
"71 c #333a3b",
"81 c #363c3d",
"91 c #494f4f",
":1 c #585c5c",
";1 c #4c5151",
"A1 c #505657",
"B1 c #2e3336",
"C1 c #4c5152",
"D1 c #a3a4a4",
"E1 c #666a68",
"F1 c #676b68",
"G1 c #707370",
"H1 c #626565",
"I1 c #3f4545",
"J1 c #6c6f6d",
"K1 c #91928f",
"L1 c #999a98",
"M1 c #838685",
"N1 c #4c5050",
"O1 c #434848",
"P1 c #424748",
"Q1 c #737778",
"R1 c #3f4345",
"S1 c #6c7070",
"T1 c #727574",
"U1 c #5b5f5e",
"V1 c #636664",
"W1 c #696c6a",
"X1 c #6b6d6b",
"Y1 c #9fa19d",
"Z1 c #b8b9b5",
"a1 c #d9d9d7",
"b1 c #ececec",
"c1 c #919493",
"d1 c #393f41",
"e1 c #494e4e",
"f1 c #404546",
"g1 c #55595b",
"h1 c #303537",
"i1 c #5f6262",
"j1 c #555a58",
"k1 c #626563",
"l1 c #5f6362",
"m1 c #373e3e",
"n1 c #686b6a",
"o1 c #a2a4a2",
"p1 c #c8c9c8",
"q1 c #878989",
"r1 c #464c4c",
"s1 c #3d4243",
"t1 c #343a3b",
"u1 c #818585",
"v1 c #4d5252",
"w1 c #4e5352",
"x1 c #545857",
"y1 c #595d5b",
"z1 c #5c605e",
"02 c #5a5e5d",
"12 c #4e5253",
"22 c #3b4142",
"32 c #45494a",
"42 c #464b4c",
"52 c #464b4b",
"62 c #383d3e",
"72 c #303637",
"82 c #353a3c",
"92 c #767a7b",
":2 c #9e5111",
";2 c #c95f07",
"A2 c #c85d06",
"B2 c #a45818",
"C2 c #5b5145",
"D2 c #4f5353",
"E2 c #60574b",
"F2 c #a85b1c",
"G2 c #c65c06",
"H2 c #a65a1b",
"I2 c #5a5045",
"J2 c #454a4a",
"K2 c #3f4445",
"L2 c #383e3f",
"M2 c #424749",
"N2 c #686d6e",
"O2 c #2f3437",
"P2 c #d36a13",
"Q2 c #b8641d",
"R2 c #474a4a",
"S2 c #b9641e",
"T2 c #e4832d",
"U2 c #b8631d",
"V2 c #3d4142",
"W2 c #373c3e",
"X2 c #313738",
"Y2 c #54595a",
"Z2 c #555a5c",
"a2 c #d46810",
"b2 c #f6a251",
"c2 c #e4832c",
"d2 c #b6621c",
"e2 c #3c4041",
"f2 c #c26417",
"g2 c #f19d4f",
"h2 c #f49c48",
"i2 c #e3822d",
"j2 c #b6621b",
"k2 c #34383a",
"l2 c #373d3f",
"m2 c #717577",
"n2 c #3e4345",
"o2 c #c75d06",
"p2 c #b06324",
"q2 c #443b32",
"r2 c #303638",
"s2 c #ca5b02",
"t2 c #c65b03",
"u2 c #a05111",
"v2 c #41392f",
"w2 c #313739",
"x2 c #6b6f70",
"y2 c #505456",
"z2 c #42484a",
"03 c #6b7071",
"13 c #5c6162",
"23 c #464a4c",
"33 c #6d7171",
"43 c #343a3c",
"53 c #404647",
"63 c #4c5153",
"73 c #64696a",
"83 c #6c7172",
"93 c #454a4c",
":3 c #2f3436",
";3 c #cf5d00",
"A3 c #f8a454",
"B3 c #cf5d01",
"C3 c #f8a655",
"D3 c #747879",
"E3 c #676b6c",
"F3 c #5a5f61",
"G3 c #494e50",
"H3 c #2f3537",
"I3 c #2e3536",
"J3 c #cf5c00",
"K3 c #f29f50",
"L3 c #f8a554",
"M3 c #f8a553",
"N3 c #f8a452",
"O3 c #f7ad67",
"P3 c #cd5c00",
"Q3 c #2e3436",
"R3 c #2f3536",
"S3 c #2d3437",
"T3 c #2e3435",
"U3 c #cf5e02",
"V3 c #ce5d01",
"W3 c #ce5c00",
"                        W3W3W3W3W3W3V3U3V3W3",
"              T3S3R3Q3Q3P3O3N3M3L3L3M3N3K3J3",
"          I3H3G3F3E3D3D3W3C3U3B3W3W3W3W3A3;3",
"        :393837363534343W3L3W33323:3  W3A3;3",
"      Q31303z2Q3Q3Q3Q3Q3W3L3W3z20313Q3W3A3;3",
"    :3y2x2w2Q3Q3Q3v2u2t2;3L3s2r2q2p2o2;3A3;3",
"    n2m2l2Q3Q3Q3k2j2i2h2h2g2f2e2d2c2h2h2b2a2",
"  Q3Z2Y2Q3Q3X2W2V2U2T2h2h2T2S2R2Q2c2h2h2c2P2",
"  O2N2M2Q3w2L2K2J2I2H2G2G2F2E2D2C2B2A2;2:2  ",
"  Q392827262K252423222L21202z1y1x1w1v1u1Q3  ",
"  O2N2M2t1s1J2r1W2q1p1o1n1m1l1k1z1j1i192h1  ",
"  :3Z2g162f1e1d1c1b1a1Z1Y1X1L2W1V1U1T1S1H3  ",
"  Q3R1Q1P1O1N1r1K2M1L1K1J1I1H1G1F1E1D1C1B1  ",
"    R3A1Q142;1j1:191817161514131211101h1    ",
"      I3z0y0x0x1w0v0u0t0s0r0q0p0o0n0r2      ",
"      m0:3l0k0j0i0h021g0f0e0d0c0b0a0Z0      ",
"          Y0r2X0W0V0U0T0S0R0Q0w2H3P0        ",
"          r2O0N0M0L0K0K0J0X2I0H0Y0          ",
"          G0F0E0D0C0B0V1A0;0:09080          ",
"            727060504030t02010O2            ",
"                h100h1h1w2R3                ",
"                                            "};
