/* XPM */
static char *image[] = {
"22 22 297 2",
"   c None",
"00 c #494e47",
"10 c #52564f",
"20 c #595d55",
"30 c #51554e",
"40 c #4a4d45",
"50 c #4d514a",
"60 c #6b6d66",
"70 c #979893",
"80 c #9c9d99",
"90 c #9e9f9c",
":0 c #a0a19d",
";0 c #a3a3a0",
"A0 c #a5a6a2",
"B0 c #a7a8a4",
"C0 c #abaca9",
"D0 c #b0b0ad",
"E0 c #b4b5b2",
"F0 c #b6b7b4",
"G0 c #b9b9b7",
"H0 c #bdbebb",
"I0 c #babbb8",
"J0 c #737670",
"K0 c #4d5048",
"L0 c #969793",
"M0 c #80807c",
"N0 c #64695f",
"O0 c #555a51",
"P0 c #a9db76",
"Q0 c #777873",
"R0 c #8d8e8a",
"S0 c #b8b9b6",
"T0 c #54574f",
"U0 c #9e9f9b",
"V0 c #979b95",
"W0 c #ccccca",
"X0 c #54584f",
"Y0 c #a1a19e",
"Z0 c #0a0c07",
"a0 c #b7bbb4",
"b0 c #d0d1cf",
"c0 c #565a51",
"d0 c #a3a4a1",
"e0 c #b9bdb6",
"f0 c #26311a",
"g0 c #263119",
"h0 c #263019",
"i0 c #253019",
"j0 c #ffffff",
"k0 c #242e18",
"l0 c #232e18",
"m0 c #232d18",
"n0 c #0a0d07",
"o0 c #b6b9b3",
"p0 c #d7d8d6",
"q0 c #5a5e55",
"r0 c #565a52",
"s0 c #a6a7a3",
"t0 c #b8bcb5",
"u0 c #090b06",
"v0 c #1f2815",
"w0 c #1f2814",
"x0 c #1e2814",
"y0 c #1e2714",
"z0 c #1e2614",
"01 c #1e2613",
"11 c #080a05",
"21 c #b2b6af",
"31 c #a9aaa7",
"41 c #b4b8b1",
"51 c #0f130a",
"61 c #354322",
"71 c #344222",
"81 c #344121",
"91 c #334121",
":1 c #334021",
";1 c #324021",
"A1 c #5b664d",
"B1 c #c8ccc4",
"C1 c #aeb2ac",
"D1 c #e4e4e3",
"E1 c #61655e",
"F1 c #acadaa",
"G1 c #b1b4ae",
"H1 c #0b0f07",
"I1 c #2a351b",
"J1 c #2a351a",
"K1 c #2a341a",
"L1 c #29341a",
"M1 c #29331a",
"N1 c #28331a",
"O1 c #283319",
"P1 c #3c452f",
"Q1 c #bcc1b5",
"R1 c #f0f1ef",
"S1 c #adb3a4",
"T1 c #0b0e07",
"U1 c #abaea8",
"V1 c #e9eae8",
"W1 c #656961",
"X1 c #575b53",
"Y1 c #aeafac",
"Z1 c #adb1aa",
"a1 c #13180c",
"b1 c #44552b",
"c1 c #43552b",
"d1 c #43542b",
"e1 c #43542a",
"f1 c #42542a",
"g1 c #42532a",
"h1 c #fbfcfb",
"i1 c #bdc3b5",
"j1 c #576643",
"k1 c #53623e",
"l1 c #191d13",
"m1 c #a7aaa4",
"n1 c #eeeeee",
"o1 c #696d65",
"p1 c #b2b2af",
"q1 c #aaada7",
"r1 c #0e1209",
"s1 c #344120",
"t1 c #334120",
"u1 c #334020",
"v1 c #374425",
"w1 c #3f4b2f",
"x1 c #606754",
"y1 c #d7dbd3",
"z1 c #f2f4f2",
"02 c #bfc5b7",
"12 c #141710",
"22 c #a3a7a1",
"32 c #f1f1f0",
"42 c #6e726a",
"52 c #bbbbb9",
"62 c #a6a9a3",
"72 c #181d0f",
"82 c #526734",
"92 c #526733",
":2 c #526633",
";2 c #516633",
"A2 c #546937",
"B2 c #637549",
"C2 c #6f7f57",
"D2 c #6f8058",
"E2 c #718259",
"F2 c #72825b",
"G2 c #96a285",
"H2 c #dbdfd7",
"I2 c #21261b",
"J2 c #a0a39d",
"K2 c #72766d",
"L2 c #585c54",
"M2 c #c4c5c2",
"N2 c #a2a5a0",
"O2 c #12160b",
"P2 c #3f4e27",
"Q2 c #3e4e27",
"R2 c #3e4d27",
"S2 c #405029",
"T2 c #4b5936",
"U2 c #546142",
"V2 c #566244",
"W2 c #576246",
"X2 c #586446",
"Y2 c #596549",
"Z2 c #5a664a",
"a2 c #5b674b",
"b2 c #1a1d15",
"c2 c #9c9f9a",
"d2 c #767a72",
"e2 c #cdcecc",
"f2 c #9fa29c",
"g2 c #1c2311",
"h2 c #61793c",
"i2 c #657c41",
"j2 c #6f854d",
"k2 c #7b8e5d",
"l2 c #84976a",
"m2 c #86986c",
"n2 c #889a6e",
"o2 c #899a6f",
"p2 c #8a9b71",
"q2 c #8b9c72",
"r2 c #8c9d74",
"s2 c #8e9e75",
"t2 c #8f9f77",
"u2 c #90a078",
"v2 c #2a2e23",
"w2 c #999b96",
"x2 c #585c55",
"y2 c #d6d6d5",
"z2 c #9b9e99",
"03 c #191e13",
"13 c #616e4c",
"23 c #647151",
"33 c #657251",
"43 c #667352",
"53 c #677353",
"63 c #677454",
"73 c #677555",
"83 c #697557",
"93 c #6a7659",
":3 c #6b775a",
";3 c #6c785b",
"A3 c #6d785c",
"B3 c #6e795d",
"C3 c #1f231b",
"D3 c #959893",
"E3 c #7d8179",
"F3 c #5a5e56",
"G3 c #dededd",
"H3 c #979a95",
"I3 c #2c3223",
"J3 c #9bad7e",
"K3 c #9cae7f",
"L3 c #9daf81",
"M3 c #9db082",
"N3 c #9fb083",
"O3 c #a0b285",
"P3 c #a1b387",
"Q3 c #a2b488",
"R3 c #a3b48a",
"S3 c #a4b58b",
"T3 c #a5b68d",
"U3 c #a6b68e",
"V3 c #a7b78f",
"W3 c #a8b890",
"X3 c #31352a",
"Y3 c #91948f",
"Z3 c #81847d",
"a3 c #5d6059",
"b3 c #e5e6e5",
"c3 c #949792",
"d3 c #2d3324",
"e3 c #2f3427",
"f3 c #2f3428",
"g3 c #303528",
"h3 c #303529",
"i3 c #31362a",
"j3 c #32362a",
"k3 c #32362b",
"l3 c #33372c",
"m3 c #33382d",
"n3 c #32372c",
"o3 c #848881",
"p3 c #5f645c",
"q3 c #e1e2e0",
"r3 c #b5b8b1",
"s3 c #90928e",
"t3 c #8f928d",
"u3 c #8f918d",
"v3 c #8e918c",
"w3 c #8e908c",
"x3 c #8d908b",
"y3 c #8d8f8b",
"z3 c #8c8f8a",
"04 c #8c8e8a",
"14 c #8c8e89",
"24 c #8b8d89",
"34 c #8b8d88",
"44 c #b9bbb5",
"54 c #e7e7e6",
"64 c #8a8d84",
"74 c #676d64",
"84 c #969893",
"94 c #e2e3e2",
":4 c #ececeb",
";4 c #ededec",
"A4 c #eeeeed",
"B4 c #efefef",
"C4 c #f0f0ef",
"D4 c #f1f1f1",
"E4 c #f1f2f1",
"F4 c #e9e9e8",
"G4 c #aaaea7",
"H4 c #8f9389",
"I4 c #6b7068",
"J4 c #6d7068",
"K4 c #6d7169",
"L4 c #6f736b",
"M4 c #71746d",
"N4 c #73766f",
"O4 c #747871",
"P4 c #767a73",
"Q4 c #787c73",
"R4 c #7a7e75",
"S4 c #7c8177",
"T4 c #7e8279",
"U4 c #81847b",
"V4 c #82867d",
"W4 c #848880",
"X4 c #868a82",
"Y4 c #888c83",
"Z4 c #8a8e85",
"a4 c #8c9188",
"b4 c #8e938b",
"  b4a4Z4Y4X4W4V4U4T4S4R4Q4P4O4N4M4L4K4J4I4  ",
"H4G4F4E4E4E4E4E4D4D4D4D4D4D4C4B4A4;4:4948474",
"6454443424241404z3y3y3x3w3w3v3u3u3t3s3r3q3p3",
"o3E4v3n3m3l3l3n3k3j3i3i3h3h3g3g3f3e3d3c3b3a3",
"Z3E4Y3X3W3V3U3T3S3R3Q3P3O3N3M3L3K3J3I3H3G3F3",
"E3E4D3C3B3A3;3:39383837363534333231303z2y2x2",
"R4E4w2v2u2t2s2r2q2p2o2n2m2l2k2j2i2h2g2f2e2x2",
"d2E4c2b2a2Z2Y2Y2X2W2V2U2T2S2R2Q2P2P2O2N2M2L2",
"K2E4J2I2H2G2F2E2D2C2B2A2;2:2:2929282726252L2",
"4232221202z1y1x1w1v1u1t1t1t1t1s1s1s1r1q1p1L2",
"o1n1m1l1k1j1i1h1g1g1g1f1e1e1d1c1c1b1a1Z1Y1X1",
"W1V1U1T1S1R1Q1P1O1N1M1M1L1L1K1J1J1I1H1G1F1X1",
"E1D1C1r1B1A1;1:191919181717171716161514131X1",
"a3G32111010101z0y0y0y0y0x0w0w0v0v0v0u0t0s0r0",
"q0p0o0n0m0l0k0j0j0j0j0j0i0i0i0h0g0f0T1e0d0r0",
"c0b0a0Z0u0u0u0u0u0u0u0u0u0u0u0u0u0u0n0a0Y0r0",
"X0W0V0t0e0e0e0e0e0e0e0e0e0e0e0e0e0e0t0V0U0r0",
"T0S0R0Q0Q0Q0Q0Q0Q0Q0Q0Q0Q0Q0P0Q0O0N0Q0M0L0X0",
"K0J0I0H052G0F0E0p1D0Y1C031B0A0;0:09080706050",
"  4030x220x2x2x2x2L2L2L2X1X1X1r0r0r0r01000  ",
"                                            ",
"                                            "};
