/* XPM */
static char *image[] = {
"22 22 127 2",
"   c None",
"00 c #727470",
"10 c #6e706c",
"20 c #787a76",
"30 c #6f706c",
"40 c #90928e",
"50 c #bec1bb",
"60 c #d7d9d4",
"70 c #d9dcd6",
"80 c #d1d4cf",
"90 c #c9ccc7",
":0 c #91938f",
";0 c #db3f1c",
"A0 c #72746f",
"B0 c #858783",
"C0 c #c7c9c4",
"D0 c #ced3cb",
"E0 c #d6d9d2",
"F0 c #ced0cc",
"G0 c #a8a9a5",
"H0 c #747571",
"I0 c #dd411e",
"J0 c #81847e",
"K0 c #d0d4cc",
"L0 c #c1c6bb",
"M0 c #d8dbd5",
"N0 c #929491",
"O0 c #5a5b58",
"P0 c #df421e",
"Q0 c #d9401d",
"R0 c #db411d",
"S0 c #6a6b67",
"T0 c #d2d6cf",
"U0 c #e5e7e2",
"V0 c #6e6f6b",
"W0 c #e5e7e4",
"X0 c #71736e",
"Y0 c #6e88a4",
"Z0 c #627992",
"a0 c #71726e",
"b0 c #c5cabf",
"c0 c #c9cec4",
"d0 c #ced2c9",
"e0 c #d2d6ce",
"f0 c #e9e9e7",
"g0 c #737570",
"h0 c #748fad",
"i0 c #738eab",
"j0 c #68809b",
"k0 c #70726d",
"l0 c #c8cec4",
"m0 c #b7beb1",
"n0 c #bcc2b6",
"o0 c #c0c6ba",
"p0 c #cacfc5",
"q0 c #d7dad3",
"r0 c #e3e5e0",
"s0 c #dcdfd9",
"t0 c #d6dad2",
"u0 c #d3d7cf",
"v0 c #e0e1e0",
"w0 c #737571",
"x0 c #708aa7",
"y0 c #647b94",
"z0 c #71736f",
"01 c #c3c7be",
"11 c #c3cabf",
"21 c #cdd2ca",
"31 c #eaece8",
"41 c #f0f1ef",
"51 c #f2f2f0",
"61 c #f1f1f0",
"71 c #f0f0ef",
"81 c #edeeeb",
"91 c #daddd6",
":1 c #e2e5df",
";1 c #c0c1bf",
"A1 c #7a7c78",
"B1 c #728ca9",
"C1 c #737673",
"D1 c #b3b7af",
"E1 c #cfd3cb",
"F1 c #f0f0ee",
"G1 c #eff0ee",
"H1 c #e8e9e6",
"I1 c #a9aaa7",
"J1 c #6c7170",
"K1 c #767a77",
"L1 c #9fa39d",
"M1 c #dee0db",
"N1 c #d9dad9",
"O1 c #868884",
"P1 c #657b92",
"Q1 c #7590ae",
"R1 c #556271",
"S1 c #8a8d88",
"T1 c #e8eae6",
"U1 c #dfe0df",
"V1 c #737572",
"W1 c #ecedea",
"X1 c #eeeeec",
"Y1 c #f4f4f3",
"Z1 c #939491",
"a1 c #82847f",
"b1 c #e9eae7",
"c1 c #efefee",
"d1 c #f5f5f4",
"e1 c #f3f3f2",
"f1 c #f1f1ef",
"g1 c #f5f5f3",
"h1 c #8c8d8a",
"i1 c #787975",
"j1 c #81837e",
"k1 c #848681",
"l1 c #afb1ad",
"m1 c #cacac9",
"n1 c #e0e0df",
"o1 c #e3e5e2",
"p1 c #dfdfdd",
"q1 c #b7b8b5",
"r1 c #8a8c87",
"s1 c #7c7e79",
"t1 c #797a76",
"u1 c #777874",
"v1 c #767773",
"w1 c #777974",
"x1 c #7b7d78",
"                                            ",
"                                            ",
"              x1w1v1u1t1                    ",
"          s1r1q1p1o1n1m1l1k1k1j1            ",
"        i1h1g1f1f1e1f1f1d1c1b1a1            ",
"      u1Z1Y1X1X1X1X1X1X1X1X1W1k1            ",
"      V1U1X1X1X1X1X1X1X1X1X1T1S1R1Q1        ",
"    P1O1N1X1X1X1X1X1X1X1X1X1M1L1K1Q1Q1      ",
"  Q1J1I1H1G1X1X1X1X1X1X1X1F1E1D1C1B1Q1Q1    ",
"  Q1A1;1:191817161c1514131211101z0y0x0Q1Q1  ",
"Q1  w0v0u0u0u0t0s0r0q0p0o0n0m0l0k0  j0i0Q1  ",
"h0  g0f0u0u0u0u0e0d0c0b0o0n0m0c0a0  Z0Y0Q1  ",
"x0  X0W0u0u0u0u0e0d0c0b0o0n0m0c0a0          ",
"    V0U0u0u0u0u0e0d0c0b0o0n0m0T0S0  R0Q0P0  ",
"    O0N0M0u0u0u0e0d0c0b0o0L0K0J0w0  I0P0P0  ",
"      H0G0F0s0E0e0d0c0K0D0C0B0A0    ;0P0P0  ",
"          V0:09080706050403020          P0  ",
"              g010101000u1                  ",
"                                            ",
"                                            ",
"                                            ",
"                                            "};
