/* XPM */
static char *image[] = {
"22 22 127 2",
"   c None",
"00 c #ab7da6",
"10 c #709dcd",
"20 c #ad7fa8",
"30 c #5b5c57",
"40 c #f3f3f3",
"50 c #f1f2f1",
"60 c #e5e6e3",
"70 c #e4e6e1",
"80 c #b7b8b4",
"90 c #b5b6b1",
":0 c #e0e2dd",
";0 c #b5b7b2",
"A0 c #dddfda",
"B0 c #e5e6e2",
"C0 c #e3e5e1",
"D0 c #e3e5e0",
"E0 c #c7c4ba",
"F0 c #dee0db",
"G0 c #8d8f8b",
"H0 c #cbc6bc",
"I0 c #d9dcd5",
"J0 c #e4e5e2",
"K0 c #e4e5e0",
"L0 c #e2e4e0",
"M0 c #b5b7b1",
"N0 c #b3b4b0",
"O0 c #dee1db",
"P0 c #b3b5af",
"Q0 c #8d8e89",
"R0 c #b1b2ae",
"S0 c #dbded7",
"T0 c #d9dcd6",
"U0 c #fefefe",
"V0 c #e3e4e0",
"W0 c #e1e3df",
"X0 c #e1e3de",
"Y0 c #dfe1dc",
"Z0 c #dfe1db",
"a0 c #dde0da",
"b0 c #dddfd9",
"c0 c #dbded8",
"d0 c #daddd7",
"e0 c #daddd6",
"f0 c #d8dbd5",
"g0 c #fefdfd",
"h0 c #d37d33",
"i0 c #d27d35",
"j0 c #fcc676",
"k0 c #fcc472",
"l0 c #fcc36f",
"m0 c #fcc26c",
"n0 c #fcc069",
"o0 c #fcc067",
"p0 c #fcbf65",
"q0 c #fcbd61",
"r0 c #f9c270",
"s0 c #fbc371",
"t0 c #fbb349",
"u0 c #fbb145",
"v0 c #fcaf40",
"w0 c #fbb246",
"x0 c #f7bf6d",
"y0 c #f7cb8c",
"z0 c #ce5f04",
"01 c #f0e1ca",
"11 c #f0dfc6",
"21 c #f0dfc5",
"31 c #fbb44c",
"41 c #efe4d0",
"51 c #f6c883",
"61 c #eee5d6",
"71 c #eee6d8",
"81 c #fcbe63",
"91 c #f0e1c9",
":1 c #fcaf3e",
";1 c #efe1ca",
"A1 c #f9ba5d",
"B1 c #f7c47a",
"C1 c #f5ca8b",
"D1 c #efe7da",
"E1 c #efe8dc",
"F1 c #f3d6ab",
"G1 c #fcf9f6",
"H1 c #fcbc5e",
"I1 c #efe0c9",
"J1 c #efe2cd",
"K1 c #efe5d5",
"L1 c #f6c885",
"M1 c #f5cc8f",
"N1 c #f4d099",
"O1 c #eee8dd",
"P1 c #efeae0",
"Q1 c #f2dcbc",
"R1 c #fbf8f5",
"S1 c #ce5e03",
"T1 c #fbbc64",
"U1 c #f8c77d",
"V1 c #f6ca88",
"W1 c #f6cd90",
"X1 c #f5d09a",
"Y1 c #f4d4a3",
"Z1 c #f3d7ac",
"a1 c #f2dab5",
"b1 c #f2ddbe",
"c1 c #f1e0c6",
"d1 c #f0e2cc",
"e1 c #fdfdfb",
"f1 c #d27c32",
"g1 c #ce5c00",
"h1 c #d17c34",
"i1 c #ffffff",
"j1 c #555753",
"k1 c #f6f7f5",
"l1 c #fdfefd",
"m1 c #fcfdfc",
"n1 c #fdfdfd",
"o1 c #f5f5f4",
"p1 c #5a5c57",
"q1 c #5d5e59",
"r1 c #5a5c58",
"s1 c #5c5e5a",
"t1 c #5c3566",
"u1 c #6d99ca",
"v1 c #ac7ea7",
"w1 c #6f9ccc",
"x1 c #204a87",
"                                            ",
"                x1w1x1    v1                ",
"                x1u1x1  t1v1t1              ",
"        s1r1r1r1r1r1r1r1r1r1r1r1r1r1q1      ",
"      p1o1n1n1n1m1l1l1l1l1l1l1l1l1l1k1s1    ",
"      j1i1h1g1g1g1g1g1g1g1g1g1g1g1f1e1s1    ",
"      j1i1g1d1c1b1a1Z1Y1X1W1V1U1T1S1R1s1    ",
"      j1i1g1Q1P1O1O1N1M1L1K1J1I1H1S1G1s1    ",
"      j1i1g1F1E1N1D1C1B1A1;1:19181S1G1s1    ",
"      j1i1g17161514131912121:11101z0G1s1    ",
"      j1i1g1y0x0w0212121:1v0u0t0s0z0G1s1    ",
"      j1i1g1r0q081p0o0n0m0l0k0j0j0z0G1s1    ",
"      j1i1i0g1g1g1g1g1g1g1g1g1g1g1h0g0s1    ",
"      j1i1f0e0d0c0b0a0Z0Y0Y0X0W0V0V0U0s1    ",
"      j1i1T0T0S0R0Q0P0O0N0Q0M0L0K0J0n1s1    ",
"      j1i1I0d0c0Q0H0G0F0Q0E0G0D0C0B0n1s1    ",
"      j1i1S0c0A0P0G0;0:090G08070B060n1s1    ",
"      p150l1l1l1l1l1l1n1U0U0U0U0U0U040s1    ",
"        r1j1j1j1j1j1j1j1j1j1j1j1j1j130      ",
"                x1w1x1  t120t1              ",
"                x110x1  t120t1              ",
"                          00                "};
