/* XPM */
static char *image[] = {
"22 22 51 1",
"  c None",
"0 c #9d9d9d",
"1 c #fbfbfb",
"2 c #fafafa",
"3 c #f9f9f9",
"4 c #f8f8f8",
"5 c #677579",
"6 c #f2f2f2",
"7 c #f7f7f7",
"8 c #f6f6f6",
"9 c #637073",
": c #f0f0f0",
"; c #f5f5f5",
"A c #f4f4f4",
"B c #5c686b",
"C c #f3f3f3",
"D c #f1f1f1",
"E c #5f6b6f",
"F c #efefef",
"G c #efefed",
"H c #555e61",
"I c #eeeeee",
"J c #ededed",
"K c #fefefd",
"L c #4a5153",
"M c #ececec",
"N c #ebebeb",
"O c #eaeaea",
"P c #e9e9e9",
"Q c #e7e7e7",
"R c #e8e8e8",
"S c #d4d4d4",
"T c #c8c8c8",
"U c #c7c7c7",
"V c #cfcfcf",
"W c #e5e5e5",
"X c #e6e6e6",
"Y c #d1d1d1",
"Z c #c6c6c6",
"a c #c5c5c5",
"b c #c4c4c4",
"c c #cccccc",
"d c #e4e4e4",
"e c #e3e3e3",
"f c #e2e2e2",
"g c #e1e1e1",
"h c #e0e0e0",
"i c #dfdfdf",
"j c #ffffff",
"k c #9b9b9b",
"l c #9f9f9f",
"                      ",
"                      ",
"                      ",
"lkkkkkkkkkkkkkkkkkkkkl",
"kjjjjjjjjjjjjjjjjjjjjk",
"kjihhhggffeeedddeeffjk",
"kjhcbaaaZZZZZYXXWWddjk",
"kjfVZUUUTTTTTSRQQQXWjk",
"kjdWWXQRRPPOOOOPPRRQjk",
"kjWkkkkkkkNNMLLLLLOPjk",
"kjXkKKKKKkJJIHHHHHNNjk",
"kjRkjGGGjkFFFEEEEEJMjk",
"kjPkjjjjjkDDkkkkkkkIjk",
"kjOkkkkkkkCCkjjjjjkFjk",
"kjNMBBBBBAA;kjGGGjk:jk",
"kjMJ99999;87kKKKKKk6jk",
"kjJI55555743kkkkkkkCjk",
"kjJF:6C;8432112348;Cjk",
"kjjjjjjjjjjjjjjjjjjjjk",
"lkkkkkkkkkkkkkkkkkkkk0",
"                      ",
"                      "};
