/* XPM */
static char *image[] = {
"22 22 176 2",
"   c None",
"00 c #7d7f7a",
"10 c #878b85",
"20 c #7d807a",
"30 c #7b7e77",
"40 c #8b8e88",
"50 c #b1b2ae",
"60 c #cecfcc",
"70 c #c1c2be",
"80 c #8e918a",
"90 c #7b7f7a",
":0 c #7e807d",
";0 c #9a9c99",
"A0 c #c6c8c2",
"B0 c #bfc1bb",
"C0 c #c1c4be",
"D0 c #c4c6c0",
"E0 c #c5c8c2",
"F0 c #c8cbc5",
"G0 c #d1d4ce",
"H0 c #a7a9a3",
"I0 c #81827e",
"J0 c #949691",
"K0 c #d2d4cf",
"L0 c #babdb6",
"M0 c #c4c6c1",
"N0 c #d0d1cd",
"O0 c #f6f7f6",
"P0 c #9c9e9a",
"Q0 c #848682",
"R0 c #bdbfba",
"S0 c #c6c9c3",
"T0 c #c5c7c1",
"U0 c #cbcdc7",
"V0 c #d0d2cd",
"W0 c #d8d9d6",
"X0 c #dddedb",
"Y0 c #dcddda",
"Z0 c #d9dad7",
"a0 c #888984",
"b0 c #ced0cb",
"c0 c #c1c4bd",
"d0 c #ced0cc",
"e0 c #d5d6d2",
"f0 c #dbdcd9",
"g0 c #e2e3e1",
"h0 c #e3e4e2",
"i0 c #dedfdb",
"j0 c #898b86",
"k0 c #888a85",
"l0 c #d4d6d2",
"m0 c #c7cac4",
"n0 c #cfd1cd",
"o0 c #d7d8d5",
"p0 c #eaeae8",
"q0 c #e7e7e5",
"r0 c #f9f9f8",
"s0 c #8a8c87",
"t0 c #898b85",
"u0 c #d0d1ce",
"v0 c #cfd1cc",
"w0 c #d6d7d3",
"x0 c #dedfdc",
"y0 c #e1e2e0",
"z0 c #e5e6e3",
"01 c #e8e9e7",
"11 c #ebecea",
"21 c #eff0ef",
"31 c #eeeeed",
"41 c #e9eae8",
"51 c #e7e8e5",
"61 c #8b8c88",
"71 c #878a85",
"81 c #c3c5c0",
"91 c #d6d8d4",
":1 c #dadbd8",
";1 c #ececea",
"A1 c #f2f3f2",
"B1 c #f6f6f5",
"C1 c #f5f5f5",
"D1 c #ecedeb",
"E1 c #edeeed",
"F1 c #e6e7e5",
"G1 c #8b8c87",
"H1 c #aaaca7",
"I1 c #dcdedb",
"J1 c #e6e7e4",
"K1 c #f7f8f7",
"L1 c #f5f5f4",
"M1 c #f3f4f3",
"N1 c #f5f6f5",
"O1 c #fafafa",
"P1 c #fdfdfc",
"Q1 c #fbfbfb",
"R1 c #f3f3f3",
"S1 c #f3f3f2",
"T1 c #c8c9c6",
"U1 c #8e908a",
"V1 c #e0e1df",
"W1 c #dee0dd",
"X1 c #cccec9",
"Y1 c #cfd0cb",
"Z1 c #e4e5e2",
"a1 c #f4f5f4",
"b1 c #ffffff",
"c1 c #fdfdfd",
"d1 c #f8f8f7",
"e1 c #e8e9e6",
"f1 c #d1d3cf",
"g1 c #cfd3cd",
"h1 c #e5e7e4",
"i1 c #f4f5f3",
"j1 c #959692",
"k1 c #8c8f88",
"l1 c #b9b9b6",
"m1 c #e2e3e0",
"n1 c #e0e1de",
"o1 c #e0e2de",
"p1 c #d5d7d3",
"q1 c #c8cac5",
"r1 c #bec1bb",
"s1 c #bbbeb7",
"t1 c #bfc2bc",
"u1 c #cbcdc8",
"v1 c #dddeda",
"w1 c #ededeb",
"x1 c #f3f4f2",
"y1 c #d3d5d1",
"z1 c #8d908b",
"02 c #8c8f8a",
"12 c #d0d2cf",
"22 c #e3e4e1",
"32 c #e1e2df",
"42 c #e8e8e6",
"52 c #e9ebe9",
"62 c #afb8b9",
"72 c #edefed",
"82 c #eff0ee",
"92 c #efefee",
":2 c #edeeec",
";2 c #f0f1f0",
"A2 c #e8e9e8",
"B2 c #8f918c",
"C2 c #8e908b",
"D2 c #ccceca",
"E2 c #e5e6e4",
"F2 c #e4e5e3",
"G2 c #b0c6da",
"H2 c #b3c8dc",
"I2 c #eaebe9",
"J2 c #ececeb",
"K2 c #f0f0ef",
"L2 c #e1e1e0",
"M2 c #949591",
"N2 c #8c8d89",
"O2 c #a5a6a1",
"P2 c #cececb",
"Q2 c #dfe0dd",
"R2 c #8bafd5",
"S2 c #90b4d9",
"T2 c #8cb0d6",
"U2 c #e6e6e4",
"V2 c #d9dbd8",
"W2 c #b2b4b0",
"X2 c #8e8f8a",
"Y2 c #8d8e89",
"Z2 c #c7d8eb",
"a2 c #85a5c8",
"b2 c #8d8f8a",
"c2 c #8e918c",
"d2 c #729fcf",
"e2 c #5a6368",
"f2 c #545853",
"g2 c #555754",
"h2 c #555854",
"i2 c #545752",
"                                            ",
"                                            ",
"            i2h2g2f2                        ",
"                    e2                      ",
"                    d2                      ",
"              c2b2a2Z2a2Y2X2                ",
"          b2W2V2U2T2S2R2Q2P2O2N2            ",
"        M2L2K2J2I2H2d2G2F2F2E2D2C2          ",
"      B2A2;2:2928272625242F232221202        ",
"    z1y1x1K2w1v1u1t1s1r1q1p1o1n1m1l1k1      ",
"    j1i1h1g1f1e1d1c1b1c1a1Z1Y1X1W1V1U1      ",
"    T1S1R1Q1P1c1c1O1N1M1x1L1K1L1J1I1H1      ",
"  G1F1E1D1K2S1C1B1L1A182;1e1Z1n1:1918171    ",
"  61C15141J23121K282:21101z0y0x0w0v0u0t0    ",
"  s0r0m1F2q00141p04101F1Z132x0o0n0m0l0k0    ",
"  j0d1i0Q23222h0Z1h0g032Q2f0e0d0m0c0b0j0    ",
"  a03222w0Z0Y0X0x0X0f0W0l0V0U0T0r1S0R0Q0    ",
"    P0O0:1X1b0N0V0n0b0u1q1M0t1L0T0K0J0      ",
"    I0H082F1G0F0E0T0D0C0r1B0A0K0K0;0:0      ",
"      908070Q21131;141F122I160504030        ",
"          2010j0k0k0k0k0k0k0k000            ",
"                                            "};
