/* XPM */
static char *image[] = {
"48 48 227 2",
"   c None",
"00 c #bbbbbb",
"10 c #5b5b5b",
"20 c #b7b7b7",
"30 c #757575",
"40 c #e6e6e6",
"50 c #050505",
"60 c #313131",
"70 c #545454",
"80 c #727272",
"90 c #8f8f8f",
":0 c #737373",
";0 c #a5a5a5",
"A0 c #c2c2c2",
"B0 c #8c8c8c",
"C0 c #575757",
"D0 c #7d7d7d",
"E0 c #6d6d6d",
"F0 c #a9a9a9",
"G0 c #0f0f0f",
"H0 c #1f1f1f",
"I0 c #b8b8b8",
"J0 c #d4d4d4",
"K0 c #c1c1c1",
"L0 c #d9d9d9",
"M0 c #2b2b2b",
"N0 c #2c2c2c",
"O0 c #bababa",
"P0 c #d2d2d2",
"Q0 c #cba88c",
"R0 c #ac8662",
"S0 c #8e6539",
"T0 c #4b2d10",
"U0 c #4b341f",
"V0 c #4b3c2e",
"W0 c #6c6c6c",
"X0 c #8e8e8e",
"Y0 c #929292",
"Z0 c #6a6a6a",
"a0 c #9c9388",
"b0 c #cfbca6",
"c0 c #d19f65",
"d0 c #9d7951",
"e0 c #69543e",
"f0 c #a59687",
"g0 c #a5998e",
"h0 c #a59d96",
"i0 c #938981",
"j0 c #848484",
"k0 c #aaaaaa",
"l0 c #333333",
"m0 c #806d56",
"n0 c #cda77a",
"o0 c #d7963f",
"p0 c #8d6d41",
"q0 c #623b19",
"r0 c #897665",
"s0 c #f7f7f7",
"t0 c #e3e3e3",
"u0 c #988b7f",
"v0 c #4e341b",
"w0 c #8d7449",
"x0 c #4f3011",
"y0 c #7d572c",
"z0 c #7e7e7e",
"01 c #cbcbcb",
"11 c #f0f0f0",
"21 c #b7b1ab",
"31 c #7f7266",
"41 c #af7c38",
"51 c #745a38",
"61 c #4d3014",
"71 c #8c6634",
"81 c #cc9c55",
"91 c #8b8b8b",
":1 c #494949",
";1 c #d7d7d7",
"A1 c #713e0c",
"B1 c #5a4128",
"C1 c #4b3017",
"D1 c #9c753d",
"E1 c #edbb64",
"F1 c #b0b0b0",
"G1 c #787878",
"H1 c #434343",
"I1 c #212121",
"J1 c #b9b9b9",
"K1 c #887d73",
"L1 c #88837e",
"M1 c #898989",
"N1 c #4b3d28",
"O1 c #9d8a5e",
"P1 c #efd794",
"Q1 c #908f8c",
"R1 c #b8b8b6",
"S1 c #e1e1e1",
"T1 c #f6f6f6",
"U1 c #2e2e2e",
"V1 c #5d5d5d",
"W1 c #505050",
"X1 c #f9f9f9",
"Y1 c #c3bdb8",
"Z1 c #b8b5b2",
"a1 c #adadad",
"b1 c #463b2b",
"c1 c #9a8b63",
"d1 c #efdb9c",
"e1 c #9e9d9c",
"f1 c #979696",
"g1 c #909090",
"h1 c #4c4c4c",
"i1 c #585858",
"j1 c #e7e7e7",
"k1 c #d1d1d1",
"l1 c #42392f",
"m1 c #998c69",
"n1 c #f0e0a4",
"o1 c #acacac",
"p1 c #767676",
"q1 c #979797",
"r1 c #606060",
"s1 c #aeaeae",
"t1 c #fafafa",
"u1 c #46443d",
"v1 c #796142",
"w1 c #ac7e47",
"x1 c #b5b5b5",
"y1 c #c6c6c6",
"z1 c #0d0d0d",
"02 c #060606",
"12 c #afafaf",
"22 c #d6d6d6",
"32 c #dedede",
"42 c #c0c0c0",
"52 c #3e3b36",
"62 c #766959",
"72 c #ae977c",
"82 c #f3f3f3",
"92 c #8d8d8d",
":2 c #858585",
";2 c #4b4b4b",
"A2 c #363230",
"B2 c #737170",
"C2 c #b1b1b1",
"D2 c #404040",
"E2 c #1b1b1b",
"F2 c #0b0b0b",
"G2 c #323232",
"H2 c #969696",
"I2 c #fbfbfb",
"J2 c #ebebeb",
"K2 c #d8d8d8",
"L2 c #656565",
"M2 c #868686",
"N2 c #f8f8f8",
"O2 c #7c7c7c",
"P2 c #080808",
"Q2 c #cecece",
"R2 c #989898",
"S2 c #cacaca",
"T2 c #f5f5f5",
"U2 c #8a8a8a",
"V2 c #414141",
"W2 c #4e4e4e",
"X2 c #5f5f5f",
"Y2 c #555555",
"Z2 c #9e9e9e",
"a2 c #ececec",
"b2 c #949494",
"c2 c #3c3c3c",
"d2 c #474747",
"e2 c #363636",
"f2 c #373737",
"g2 c #e5e5e5",
"h2 c #c8c8c8",
"i2 c #ababab",
"j2 c #9f9f9f",
"k2 c #fcfcfc",
"l2 c #eeeeee",
"m2 c #e0e0e0",
"n2 c #3b3b3b",
"o2 c #9c9c9c",
"p2 c #fdfdfd",
"q2 c #a1a1a1",
"r2 c #3d3d3d",
"s2 c #383838",
"t2 c #393939",
"u2 c #3a3a3a",
"v2 c #b3b3b3",
"w2 c #7a7a7a",
"x2 c #424242",
"y2 c #a0a0a0",
"z2 c #999999",
"03 c #939393",
"13 c #9d9d9d",
"23 c #cdcdcd",
"33 c #fefefe",
"43 c #646464",
"53 c #a2a2a2",
"63 c #262626",
"73 c #9b9b9b",
"83 c #5c5c5c",
"93 c #1d1d1d",
":3 c #676767",
";3 c #565656",
"A3 c #444444",
"B3 c #464646",
"C3 c #282828",
"D3 c #515151",
"E3 c #454545",
"F3 c #7f7f7f",
"G3 c #3f3f3f",
"H3 c #686868",
"I3 c #4a4a4a",
"J3 c #747474",
"K3 c #b4b4b4",
"L3 c #e9e9e9",
"M3 c #f4f4f4",
"N3 c #878787",
"O3 c #101010",
"P3 c #9a9a9a",
"Q3 c #717171",
"R3 c #bfbfbf",
"S3 c #ffffff",
"T3 c #808080",
"U3 c #010101",
"V3 c #000000",
"                                                                                                ",
"                                                V3U3                                            ",
"                                              V3V3V3U3                                          ",
"                                          V3V3V3U3T3S3S3                                        ",
"                                          V3V3V3T3R3S3Q3P3                                      ",
"                                        V3V3V3U3S3S3S3O3Q3S3                                    ",
"                                    V3V3V3U3T3S3S3N3O3S3M3L3V3                                  ",
"                                    V3V3V3T3R3S3N3N3N3M3K3J3V3I3                                ",
"                                  V3V3V3U3S3S3S3O3N3S3L3J3V3V3H3S3                              ",
"                              V3V3V3U3T3S3S3N3O3S3M3L3V3V3V3S3S3S3S3                            ",
"                              V3V3V3T3R3S3N3N3N3M3K3J3V3G3F3S3S3S3H3I3                          ",
"                            V3V3V3U3S3S3S3O3N3S3L3J3V3V3F3S3S3S3S3U3U3V3                        ",
"                        V3V3V3U3T3S3S3N3O3E3E3E3D3C3V3S3S3S3B3E3A3E3;3:3S3                      ",
"                        V3V3V3938373N3;363535353I343F333231303z2y2x2w2v2S3S3                    ",
"                      V3V3V3U3u2t2s2O363r2S3S3S3A3q2S3p2o2n2m2l2k2G3j2S3S3S3S3                  ",
"                  V3V3V3V3V3V3i2h2g2t2f2e2S3S3S3E3B3d2c2b2a2S33333G3Z2p2S3F3V3V3                ",
"                  V3V3V3F3F3F3Y2q2l2X2W2r2S3S3S3V2V2x2U2R3T2p2S2R2j2Q233F3G3V3V3P2              ",
"                V3V3V3U3S3S3S3V3O2N2M2L2A3S3S3S3r2r2r2K2J2S3I2H2G2S3S3S3V3V3V3V3F2E2            ",
"            V3V3V3U3T3S3S3N3O3p2Z2D2C2B2A2S3S3S3;2:2R3S3S3S3s273S3S3F3V3V3V3V3E292S3S3          ",
"            V3V3V3T3R3S3N3N3N382z2D2726252S3S3S3534232332212t2o2S3F3G3V3V302z192y1S3S3x1        ",
"          V3V3V3U3S3S3S3O3N3S3L3b2D2w1v1u1S3S3S3t1k233p2s1r1u2o2S3V3V3V3V3z1E2S3S3S3S3q1V3      ",
"      V3V3V3U3T3S3S3N3O3S353E3D2p1o1n1m1l1S3S3S3k1j13333T2a2i1h1D2U3V3V3E292S3S3S3S3V3V3V3S3    ",
"      V3V3V3T3R3S3N3N3N3j2Z213g1f1e1d1c1b1S3S3S3a1Z1Y133X1T2h1W2W1V1U1V392y1S3S3R3F3V3G3F3S3    ",
"    V3V3V3U3S3S3S3O3N3S3D273T1S1R1Q1P1O1N1S3S3S3M1L1K13333S3V2W1r1J1V1U3S3S3S3S3F3V3V3F3S3S3S3  ",
"      U3T3S3S3N3O3S3M3L3V3I1H1D2G1F1E1D1C1S3S3S3A3B1A1C2;133S313c2D2j2S3S3S3S3V3V3V3S3S3S3S3S3  ",
"      :1K3S3N3N3N3M3K3J3V3W1y2j291G1817161S3S3S3t251413121113301z2f273S3S3R3F3V3G3F3S3S3S3S3    ",
"        S3S3O3N3S3L3J3V3V3z0p2S3j2D2w1y0x0S3S3S3U1w0E1v0u0t033t1s0U1H2S3S3F3V3V3F3S3S3S3S3      ",
"            S3M3L3V3V3V3S3S3S3p2o2c2C2r0q0S3S3S3A3p0o0n0m0l0t1t1t1r2Z2S3V3V3V3S3S3S3S3S3        ",
"            N2k0J3V3G3F3S3p2k2z0j0U213i0r0h0g0f0e0d0c0b0a0Z0b203Y0Z2X0F3V3G3F3S3S3S3S3          ",
"              x2V3V3F3S3S3k2X1V3W0K2U213C2V0U0T0S0R0Q0P0O053U1N0M0S3F3V3V3F3S3S3S3S3            ",
"                  S3S3S3s0H2e2L3L0S2u2u2n2s1K0J0I073F3H0G0V3g2F0E0V3V3V3S3S3S3S3S3              ",
"                  S3S3S3O2;2E292:2D0o2o213C0B0A0;0:0x290N3F38070e2V3G3F3S3S3S3S3                ",
"                    S3S3U3V3V3G26060S3S3S3V3i1F103h150S3S3S3V3V3V3V3F3S3S3S3S3                  ",
"                        V3l0:3333333S3F3V3V3:040p1n2V3S3S3S3V3V3V3S3S3S3S3S3                    ",
"                        9330v2333333F3G3V3V3t2:0n2V1F3S3R3F3V3G3F3S3S3S3S3                      ",
"                          J0S3S3S3S3V3V3V3V3V3V3V3F3S3S3F3V3V3F3S3S3S3S3                        ",
"                              S3F3V3V3V3V3E292S3S3S3S3V3V3V3S3S3S3S3S3                          ",
"                              20;2V3V302z192y1S3S3R3F3V3G3F3S3S3S3S3                            ",
"                                V3V3V3z1E2S3S3S3S3F3V3V3F3S3S3S3S3                              ",
"                                    E292S3S3S3S3V3V3V3S3S3S3S3S3                                ",
"                                    1000S3S3R3F3V3G3F3S3S3S3S3                                  ",
"                                      S3S3S3F3V3V3F3S3S3S3S3                                    ",
"                                          V3V3V3S3S3S3S3S3                                      ",
"                                          V3;2F3S3S3S3S3                                        ",
"                                            20S3S3S3S3                                          ",
"                                                S3S3                                            ",
"                                                S3                                              ",
"                                                                                                "};
