/* XPM */
static char *image[] = {
"48 48 3 1",
"  c None",
"0 c #000000",
"1 c #ffffff",
"                                                ",
"                                                ",
"                                                ",
"     101010010010010010010010010010010010       ",
"    10101011011011011011011011011011011010      ",
"    101111111111111111111111111111111111010     ",
"   1011101010101010101010101010101010101101     ",
"   0101101101010101010101010101010101111100     ",
"   1011010110111011101110111011011010001011     ",
"   0101101111111111111111111111111111111100     ",
"   0111011111111111111111111111111111001010     ",
"   0011011110101010101010101010101111101101     ",
"   1011010110101010101101010101010111010100     ",
"   0101101111010101010101011101010111011110     ",
"   0110111110101101101110101101010111010010     ",
"   1011001110110101011110111101011111011101     ",
"   0101111110101010101110111101010111010100     ",
"   0011001110101011011110111110101011010110     ",
"   0101101110101101011111011110101111011010     ",
"   1011011111111010111111111110101011010101     ",
"   0101101111111101011011110111010111011010     ",
"   0110101110111101111011110111010111101010     ",
"   1011011110101101110111101011010111010101     ",
"   0101101110111110111011101111101111011010     ",
"   1010101110101111110101101011101111001101     ",
"   0101101110101101101011010101111111010100     ",
"   0110101111010111110101010111111111011010     ",
"   0101011110101111101010101000100111010101     ",
"   1011011110101011101010101011010111010110     ",
"   0101010110101111010101010100101111010100     ",
"   0101101110101011010101010101010111010110     ",
"   0101011110101011010101010101010111010101     ",
"   1010101110101001010101010101010111010100     ",
"   0101011110110110101010101010101110101101     ",
"   0110101111111111111111111111111111010100     ",
"   0101010111111111111111111111111111010110     ",
"   1011011010010010101010101010101001010100     ",
"   0101010101010101010101010101010101010110     ",
"   0101010101101101010101010101010101011001     ",
"    010110110101010101010101010101101101010     ",
"    10101001010101011010101011011010101010      ",
"     001010010010010010101010010000100010       ",
"          0000000000000000000000010000          ",
"                                                ",
"                                                ",
"                                                ",
"                                                ",
"                                                "};
