/* XPM */
static char *image[] = {
"22 22 151 2",
"   c None",
"00 c #e47404",
"10 c #f27a02",
"20 c #dc6e03",
"30 c #f48510",
"40 c #fdc356",
"50 c #fed15d",
"60 c #fbad31",
"70 c #f07c04",
"80 c #f17b04",
"90 c #fdbd46",
":0 c #ffad39",
";0 c #ff8414",
"A0 c #ff9d1c",
"B0 c #fcac26",
"C0 c #f17a02",
"D0 c #f67a01",
"E0 c #ffc139",
"F0 c #ffb750",
"G0 c #ffb552",
"H0 c #ff9020",
"I0 c #ffbd28",
"J0 c #f9a72d",
"K0 c #f57b02",
"L0 c #f67c04",
"M0 c #fdad22",
"N0 c #ffc64b",
"O0 c #ffd775",
"P0 c #ffac2a",
"Q0 c #feca32",
"R0 c #fdd345",
"S0 c #faaa2f",
"T0 c #f47b03",
"U0 c #f78307",
"V0 c #feb62a",
"W0 c #ffbd25",
"X0 c #ffc42d",
"Y0 c #fdcc40",
"Z0 c #fdc240",
"a0 c #fcce44",
"b0 c #f7ac2f",
"c0 c #f17a06",
"d0 c #f57b04",
"e0 c #fbbf3b",
"f0 c #fec534",
"g0 c #fead2b",
"h0 c #fda428",
"i0 c #fe9914",
"j0 c #fcdc4c",
"k0 c #ee850f",
"l0 c #f67e04",
"m0 c #fcc63f",
"n0 c #fcb731",
"o0 c #ff950f",
"p0 c #fcd041",
"q0 c #f7a92d",
"r0 c #ed8723",
"s0 c #496fa2",
"t0 c #396aa7",
"u0 c #3667a5",
"v0 c #3566a5",
"w0 c #3869a7",
"x0 c #f37f08",
"y0 c #fbce44",
"z0 c #fdde49",
"01 c #f6a62a",
"11 c #e38324",
"21 c #bdc9d5",
"31 c #ccdaeb",
"41 c #c3d4e8",
"51 c #cfddee",
"61 c #c3d6e9",
"71 c #9ebada",
"81 c #5c86ba",
"91 c #f1800c",
":1 c #f39922",
";1 c #e6892b",
"A1 c #8da7c5",
"B1 c #769bc7",
"C1 c #a5c0de",
"D1 c #b0cae4",
"E1 c #a5c3e0",
"F1 c #a0bede",
"G1 c #a0bfdf",
"H1 c #aac5e2",
"I1 c #81a5cd",
"J1 c #957055",
"K1 c #7493b8",
"L1 c #a1b9d8",
"M1 c #a4bfdc",
"N1 c #b5cde6",
"O1 c #b7cee6",
"P1 c #c2d6ea",
"Q1 c #b5cde5",
"R1 c #b2cae4",
"S1 c #6890bf",
"T1 c #3868a7",
"U1 c #3969a6",
"V1 c #cadaeb",
"W1 c #c8daec",
"X1 c #cadbed",
"Y1 c #cfdeef",
"Z1 c #dde8f3",
"a1 c #7e9ec7",
"b1 c #a4bdda",
"c1 c #c4d7eb",
"d1 c #aec7e1",
"e1 c #3968a6",
"f1 c #e2ebf5",
"g1 c #cdddee",
"h1 c #ceddee",
"i1 c #d2e1f0",
"j1 c #e6edf6",
"k1 c #84a3c9",
"l1 c #3a6aa7",
"m1 c #adc5df",
"n1 c #c7d9ec",
"o1 c #e8eff7",
"p1 c #d1e0ef",
"q1 c #d6e3f1",
"r1 c #eaf2f8",
"s1 c #8fabce",
"t1 c #b3c9e2",
"u1 c #4270ac",
"v1 c #dce6f2",
"w1 c #d9e5f2",
"x1 c #ebf1f8",
"y1 c #9eb6d5",
"z1 c #3768a6",
"02 c #a4bbd7",
"12 c #ecf2f8",
"22 c #eff4f9",
"32 c #8aa7cb",
"42 c #3c6ca8",
"52 c #3767a5",
"62 c #3b6ba7",
"72 c #dee7f2",
"82 c #f6f9fc",
"92 c #f7f9fc",
":2 c #7b9bc5",
";2 c #3c6ba8",
"A2 c #3d6ca8",
"B2 c #c5d4e6",
"C2 c #fafbfd",
"D2 c #f7fafc",
"E2 c #7093bf",
"F2 c #3e6da9",
"G2 c #3b6aa7",
"H2 c #7899c4",
"I2 c #94afd0",
"J2 c #3a69a6",
"                                            ",
"          J2I2H2G2F2                        ",
"          G2E2D2C2B2A2                      ",
"            ;2:292827262                    ",
"  52          4232221202;2                  ",
"  z162        A2y1x1w1v1A2                  ",
"  u1t1;2    ;2s1r1q1p1o1;2                  ",
"  F2n1m1G2l1k1j1i1h1g1f1e1                  ",
"  z1d1c1b1a1Z1Y1X1X1W1V1U1                  ",
"  T1S1R1Q1P1O1N1O1N1M1L1K1J1                ",
"    z1I1H1G1F1E1D1C1B1A1;1:191              ",
"      z1817161514131211101z0y0x0            ",
"          w0v0u0t0s0r0q0p0o0n0m0l0          ",
"                    k0j0i0h0g0f0e0d0        ",
"                    c0b0a0Z0Y0X0W0V0U0      ",
"                      T0S0R0Q0P0O0N0M0L0    ",
"                        K0J0I0H0G0F0E0D0    ",
"                          C0B0A0;0:09080    ",
"                            7060504030      ",
"                              201000        ",
"                                            ",
"                                            "};
